HIERARCHY
ROOT root
{
	OFFSET 0.000000 0.000000 0.000000
	CHANNELS 6 Xposition Yposition Zposition Zrotation Yrotation Xrotation
	JOINT lhip
	{
		OFFSET 0.058581 -0.082280 -0.017664
		CHANNELS 3 Zrotation Yrotation Xrotation
		JOINT lknee
		{
			OFFSET 0.043451 -0.386469 0.008037
			CHANNELS 3 Zrotation Yrotation Xrotation
			JOINT lankle
			{
				OFFSET -0.014790 -0.426874 -0.037428
				CHANNELS 3 Zrotation Yrotation Xrotation
				JOINT ltoe
				{
					OFFSET 0.041054 -0.060286 0.122042
					CHANNELS 3 Zrotation Yrotation Xrotation
					End Site
					{
						OFFSET 0.000000 0.000000 0.000000
					}
				}
			}
		}
	}
	JOINT rhip
	{
		OFFSET -0.060310 -0.090513 -0.013543
		CHANNELS 3 Zrotation Yrotation Xrotation
		JOINT rknee
		{
			OFFSET -0.043257 -0.383688 -0.004843
			CHANNELS 3 Zrotation Yrotation Xrotation
			JOINT rankle
			{
				OFFSET 0.019056 -0.420046 -0.034562
				CHANNELS 3 Zrotation Yrotation Xrotation
				JOINT rtoe
				{
					OFFSET -0.034840 -0.062106 0.130323
					CHANNELS 3 Zrotation Yrotation Xrotation
					End Site
					{
						OFFSET 0.000000 0.000000 0.000000
					}
				}
			}
		}
	}
	JOINT lowerback
	{
		OFFSET 0.004439 0.124404 -0.038385
		CHANNELS 3 Zrotation Yrotation Xrotation
		JOINT upperback
		{
			OFFSET 0.004488 0.137956 0.026820
			CHANNELS 3 Zrotation Yrotation Xrotation
			JOINT chest
			{
				OFFSET -0.002265 0.056032 0.002855
				CHANNELS 3 Zrotation Yrotation Xrotation
				JOINT lowerneck
				{
					OFFSET -0.013390 0.211636 -0.033468
					CHANNELS 3 Zrotation Yrotation Xrotation
					JOINT upperneck
					{
						OFFSET 0.010113 0.088937 0.050410
						CHANNELS 3 Zrotation Yrotation Xrotation
						End Site
						{
							OFFSET 0.000000 0.000000 0.000000
						}
					}
				}
				JOINT lclavicle
				{
					OFFSET 0.071702 0.114000 -0.018898
					CHANNELS 3 Zrotation Yrotation Xrotation
					JOINT lshoulder
					{
						OFFSET 0.122921 0.045205 -0.019046
						CHANNELS 3 Zrotation Yrotation Xrotation
						JOINT lelbow
						{
							OFFSET 0.255332 -0.015649 -0.022946
							CHANNELS 3 Zrotation Yrotation Xrotation
							JOINT lwrist
							{
								OFFSET 0.265709 0.012698 -0.007375
								CHANNELS 3 Zrotation Yrotation Xrotation
								End Site
								{
									OFFSET 0.000000 0.000000 0.000000
								}
							}
						}
					}
				}
				JOINT rclavicle
				{
					OFFSET -0.082954 0.112472 -0.023707
					CHANNELS 3 Zrotation Yrotation Xrotation
					JOINT rshoulder
					{
						OFFSET -0.113228 0.046853 -0.008472
						CHANNELS 3 Zrotation Yrotation Xrotation
						JOINT relbow
						{
							OFFSET -0.260127 -0.014369 -0.031269
							CHANNELS 3 Zrotation Yrotation Xrotation
							JOINT rwrist
							{
								OFFSET -0.269108 0.006794 -0.006027
								CHANNELS 3 Zrotation Yrotation Xrotation
								End Site
								{
									OFFSET 0.000000 0.000000 0.000000
								}
							}
						}
					}
				}
			}
		}
	}
}
MOTION
Frames: 16
Frame Time: 0.033333
-1.444694 0.204875 0.921657 82.504475 -1.713445 89.019918 7.630394 -3.553287 -28.324775 -2.796898 1.628034 10.494027 -1.917571 10.911780 -13.244606 0.000000 -0.000000 0.000000 -0.857632 -3.341507 8.768293 -2.121439 7.566481 21.303232 -1.419819 -10.966255 -34.807192 0.000000 -0.000000 0.000000 -0.018074 6.809377 19.094466 3.258744 -4.091768 -0.180532 2.057853 0.835042 1.257821 1.430135 6.210750 -13.444216 0.995286 -8.293642 0.487393 -24.780653 -0.836286 1.063374 -55.224904 -4.770510 13.307200 1.023903 -49.248638 23.583993 4.659923 -2.341243 -1.553311 27.981588 3.957942 2.652755 53.341324 -0.557745 14.002488 -10.356499 30.289832 8.044634 -14.807825 0.884846 5.337352 
-1.414575 0.208368 0.911519 83.333955 -2.046787 90.055828 8.042110 -4.963591 -31.926691 -3.950481 2.638063 17.297232 -1.151329 10.588765 -13.281879 0.000000 -0.000000 0.000000 -1.454099 -3.489830 10.195410 -2.372611 7.144714 20.767143 -1.245326 -11.632089 -36.130485 0.000000 -0.000000 0.000000 -0.398373 8.301859 19.153902 2.985719 -3.367935 -0.217200 2.058133 1.162780 1.253755 0.720890 5.401769 -15.698733 0.827859 -8.807187 -0.950622 -25.224907 0.313246 0.010289 -55.279572 -4.060316 13.919323 -0.070352 -50.567454 26.013146 5.257816 -2.478626 -3.360652 28.431730 4.780621 2.428100 54.214552 0.201502 15.223973 -9.802998 29.143485 9.264492 -15.397223 0.478176 5.715263 
-1.382219 0.212321 0.900714 84.232637 -2.507030 91.133700 8.600720 -6.120389 -36.104073 -5.146517 5.491282 26.055678 -0.508850 10.386382 -14.301751 0.000000 -0.000000 0.000000 -2.252149 -4.123220 11.826292 -2.805287 6.735796 19.952234 -1.174796 -11.958046 -37.051315 0.000000 -0.000000 0.000000 -0.690705 10.215801 19.576555 2.351763 -2.675707 -0.993208 1.677675 1.767515 1.045991 0.463954 4.293501 -17.652028 0.808617 -10.182150 -1.045593 -25.294474 0.882307 -0.030261 -55.417025 -3.308193 13.752261 0.136832 -51.742823 26.124525 5.841109 -2.923139 -4.124054 29.076755 5.797114 2.702010 55.041442 0.702204 15.996658 -9.153342 29.132608 10.112989 -15.439261 0.593343 5.795897 
-1.338068 0.218150 0.886536 85.108396 -3.357312 92.998128 9.096264 -7.117625 -40.728563 -6.057103 9.138157 34.404076 0.358873 10.102060 -14.814413 0.000000 -0.000000 0.000000 -3.712768 -5.191899 13.640106 -3.385383 5.849205 18.758662 -0.902674 -12.011535 -37.392726 0.000000 -0.000000 0.000000 -1.095692 12.682147 19.497404 0.838007 -1.419392 -1.712016 0.746412 2.634287 0.568087 0.176877 2.470127 -19.723976 1.238448 -11.975392 -1.679578 -25.315338 1.820711 -0.010558 -54.930927 -2.274828 13.056366 1.170803 -54.011168 24.750893 6.727639 -2.469235 -5.139598 29.473905 6.953110 3.130615 56.344508 1.482218 16.982690 -8.271582 30.707024 11.061376 -15.369648 0.648792 5.690596 
-1.308618 0.222393 0.878444 85.150355 -3.930427 94.134949 8.548736 -6.842700 -42.193698 -6.366370 10.280855 37.763428 2.081880 9.601269 -15.134890 0.000000 -0.000000 0.000000 -4.939106 -5.845238 14.491342 -3.663772 5.651407 18.762531 -0.563100 -11.617324 -37.033139 0.000000 -0.000000 0.000000 -1.366131 13.905330 19.213313 -0.599449 -0.163892 -2.168729 -0.107248 3.303319 0.329553 0.311856 1.513834 -20.771473 1.672279 -12.718956 -1.996443 -25.341667 2.677816 -0.167869 -53.986214 -1.673841 12.405395 1.740910 -55.999340 24.278234 7.655776 -2.513735 -5.050944 29.521896 7.521878 3.461174 57.180036 2.185499 17.527007 -7.420396 31.993362 11.708122 -15.524053 0.933258 5.639569 
-1.264727 0.229029 0.870390 85.144640 -4.797346 95.141040 7.484047 -6.840942 -42.653710 -6.495140 11.854825 41.826248 4.873420 9.402125 -17.489285 0.000000 -0.000000 0.000000 -6.690029 -6.117899 15.614408 -3.955016 5.911789 20.341392 0.360977 -10.796418 -34.971535 0.000000 -0.000000 0.000000 -1.612923 15.056049 18.693389 -2.770150 1.568959 -2.372085 -1.621284 4.457750 0.026232 0.846076 -0.042486 -21.690183 2.463631 -13.486250 -2.309038 -25.722388 3.721275 -0.598752 -51.941610 -1.340633 11.442939 3.188556 -59.185318 22.258519 9.306825 -3.543833 -5.189518 29.298804 8.390757 3.985310 58.162591 2.954264 18.459129 -6.208303 34.202078 12.514097 -16.244911 2.114714 6.240343 
-1.216744 0.236957 0.868880 85.911518 -5.919316 95.451910 6.052482 -8.204565 -41.222151 -7.241575 12.815896 43.951003 6.821951 10.179218 -20.938331 0.000000 -0.000000 0.000000 -8.352264 -6.148787 16.174092 -3.685420 6.827182 24.328744 1.655898 -10.815825 -29.407495 0.000000 -0.000000 0.000000 -1.606806 15.604223 17.708804 -5.275350 2.793991 -0.700207 -2.818994 5.391587 -1.229391 0.607298 -3.046775 -23.705486 4.278787 -13.281668 0.853978 -26.229626 3.733819 -2.000607 -50.432685 -0.895022 9.376874 4.870882 -61.812341 17.492547 8.397680 -4.943789 -3.700768 28.096250 9.912875 4.365897 59.253792 2.891451 18.679019 -4.251271 37.383820 12.675441 -20.849777 2.481209 11.176650 
-1.166440 0.244125 0.878344 87.698669 -6.259888 95.404068 3.703700 -8.685141 -37.431317 -8.032906 11.320813 43.278134 8.854211 11.013865 -23.626984 0.000000 -0.000000 0.000000 -8.718218 -6.662834 14.448558 -3.494626 5.361388 31.321637 3.981580 -10.175436 -18.984989 0.000000 -0.000000 0.000000 -1.851763 15.249524 16.467802 -6.321221 3.858899 -1.288384 -3.419420 5.699928 -0.835426 1.572694 -5.363367 -23.485469 4.720177 -12.858342 2.874841 -26.655045 4.020936 -2.771199 -50.773546 -1.971118 8.446994 9.359447 -61.600743 11.320304 9.874792 -5.061854 -0.366162 26.563109 9.804919 3.677672 59.879199 2.035314 20.025018 -3.364399 41.111719 13.891373 -21.316017 4.823599 13.443016 
-1.115336 0.250198 0.900487 90.091231 -5.545427 94.884135 1.644376 -8.457931 -31.008545 -8.221537 8.016563 39.073957 10.367267 11.427371 -23.889937 0.000000 -0.000000 0.000000 -8.137649 -7.675870 10.930876 -3.316049 1.875178 38.867680 4.693107 -10.696002 -5.055473 0.000000 -0.000000 0.000000 -1.550582 13.184560 15.066557 -6.415785 4.328930 -2.687276 -3.425365 5.565847 0.069005 2.452786 -7.270768 -21.863461 5.187227 -11.483869 4.936342 -26.683559 4.893599 -3.155912 -52.694503 -3.074696 7.550872 12.859493 -59.934754 6.846600 11.412235 -4.357975 2.375963 24.638084 8.528502 2.482064 60.892011 1.585795 20.932690 -2.153232 43.482949 16.964610 -21.937402 7.922187 16.865458 
-1.051168 0.256509 0.943599 91.721029 -3.772093 94.193532 -0.510732 -7.784328 -19.840235 -6.794473 1.410999 28.127936 10.247012 13.472514 -19.789909 0.000000 -0.000000 0.000000 -7.192749 -8.260040 4.843523 -3.248159 -3.357796 45.860297 2.868012 -14.118551 -0.425784 0.000000 -0.000000 0.000000 -0.401569 9.637490 12.114537 -5.694740 4.658634 -3.353146 -3.223294 5.009051 1.060134 3.573192 -8.203603 -18.724516 5.386187 -10.170176 6.778331 -25.945065 6.082333 -3.486700 -54.939808 -3.240447 8.320726 11.918916 -57.445569 6.491522 15.062166 -1.738063 1.825247 22.480043 6.861888 0.498076 62.528380 1.199911 21.695033 -1.486683 44.257715 18.890544 -23.248805 9.365088 18.947887 
-1.000011 0.259610 0.986003 91.803193 -1.837900 93.564036 -1.598567 -5.922152 -10.054069 -3.752215 -2.337057 17.304667 7.528596 14.904241 -12.080861 0.000000 -0.000000 0.000000 -5.517760 -7.651635 -0.325989 -4.779516 -8.243483 46.902516 1.213118 -16.407067 -1.808954 0.000000 -0.000000 0.000000 0.811469 6.688928 9.994529 -4.642462 4.929724 -3.610137 -2.644440 4.388114 1.167753 4.476548 -7.568981 -15.536908 5.584057 -9.478502 6.768155 -24.635598 6.801748 -3.456159 -56.221068 -1.990113 10.012008 7.690576 -55.771445 11.256936 14.436981 0.159400 0.084989 21.121010 5.388947 -0.606434 63.443469 1.041227 21.591592 -1.202902 44.199427 19.952336 -23.117541 7.957659 17.293987 
-0.952824 0.259224 1.028623 92.436625 -0.058085 93.085070 -0.807010 -3.152500 -3.300283 -2.165374 -1.986917 9.290841 2.815265 14.560683 -0.956104 0.000000 -0.000000 0.000000 -3.407811 -6.303062 -5.464910 -5.436955 -13.114221 44.532390 -0.097442 -17.247961 -2.006426 0.000000 -0.000000 0.000000 1.119173 3.642117 9.006053 -2.868696 4.218021 -3.703101 -1.555587 3.355387 0.037990 5.362924 -6.270939 -12.604648 6.194754 -7.792834 5.511879 -23.212918 7.502644 -2.562696 -56.977688 -0.545753 10.982713 2.170064 -55.373586 18.509597 8.617726 -0.023622 -1.333923 19.860125 4.003806 -0.838834 63.787216 1.472926 20.990267 -0.991034 44.545117 20.854789 -21.035019 6.136763 14.130888 
-0.909034 0.256319 1.066120 94.645294 1.356663 92.260335 1.220718 0.238065 0.509293 -1.764601 -2.264859 5.505901 -2.572786 12.892987 11.617307 0.000000 -0.000000 0.000000 -1.479658 -5.878941 -9.592943 -5.142650 -16.967355 39.459841 -1.151183 -15.139009 -3.390099 0.000000 -0.000000 0.000000 0.887180 0.503397 9.793694 -0.970558 2.043962 -3.373883 0.061148 1.708999 -2.391941 6.278330 -5.030152 -9.073317 6.993031 -3.817989 1.168130 -21.545441 7.552582 -0.442461 -57.443018 1.030025 10.074150 -4.582996 -56.612951 27.946658 1.072281 -1.421850 -2.148958 18.108124 3.323408 0.122048 64.162701 2.637001 18.808927 -0.143190 45.775909 22.401363 -18.163619 4.798401 10.926219 
-0.867987 0.254181 1.093127 97.482168 2.324448 91.558813 3.033586 1.848117 1.864127 -1.644047 -3.765614 5.979722 -5.463171 12.002201 19.207160 0.000000 -0.000000 0.000000 -0.349803 -5.399685 -13.343342 -3.631116 -18.952308 32.559952 -0.710389 -12.563573 -5.090211 0.000000 -0.000000 0.000000 0.690437 -1.888303 10.558436 0.945827 -0.517048 -2.534094 1.155916 -0.202027 -3.160959 7.334085 -3.577828 -9.143734 7.306211 -4.200012 -0.065945 -19.408289 6.673142 1.032925 -57.535069 1.122941 10.657920 -10.867112 -58.001345 36.222474 -3.431224 -4.366390 -4.122709 16.859691 2.701220 -0.438307 63.863518 3.624478 17.883065 -0.415079 48.264224 22.465251 -16.099161 4.172091 7.429448 
-0.828409 0.254058 1.106865 100.080716 2.814308 90.941581 3.661601 1.824927 2.013690 -1.396007 -6.234940 9.099200 -5.879475 11.313005 17.481986 0.000000 -0.000000 0.000000 -0.274094 -4.679332 -16.839999 -1.689370 -18.394450 25.014079 0.937826 -11.205736 -7.071003 0.000000 -0.000000 0.000000 0.607186 -3.097584 11.238835 2.560098 -2.774913 -1.813210 1.972504 -2.217493 -2.969922 8.005176 -2.411494 -10.211174 7.158711 -5.929302 -0.481928 -17.066287 4.596951 2.321995 -57.052178 0.053567 12.288258 -16.776966 -59.683817 43.302871 -5.026925 -6.377246 -6.775512 15.702556 1.992654 -1.615028 63.209665 4.283779 17.650232 -1.946941 51.960843 20.794533 -14.543707 3.537829 4.340317 
-0.787578 0.254337 1.108155 101.841375 2.959628 90.145602 3.675095 1.291816 3.223091 -1.303004 -10.036684 10.068303 -7.334587 8.504810 11.835864 0.000000 -0.000000 0.000000 -0.682280 -4.182152 -19.607081 -1.032821 -16.449367 17.535186 3.301086 -9.872522 -8.460097 0.000000 -0.000000 0.000000 0.422836 -3.206327 11.794271 3.731021 -4.470563 -0.930180 2.763574 -3.864065 -2.805133 8.177547 -1.271625 -10.342639 7.079647 -7.690804 -1.973034 -15.167230 1.887644 3.202460 -55.693197 -1.334242 13.748203 -21.938913 -62.166132 49.382887 -7.374095 -8.411058 -8.129296 14.971033 1.367024 -2.442997 62.089561 4.450280 16.843088 -4.690134 56.604573 18.212409 -13.460839 3.252780 2.590175 
